<?xml version="1.0" encoding="UTF-8"?>
<!DOCTYPE svg PUBLIC "-//W3C//DTD SVG 1.1//EN" "http://www.w3.org/Graphics/SVG/1.1/DTD/svg11.dtd">
<svg xmlns="http://www.w3.org/2000/svg" version="1.1" width="360px" height="176px" style="shape-rendering:geometricPrecision; text-rendering:geometricPrecision; image-rendering:optimizeQuality; fill-rule:evenodd; clip-rule:evenodd" xmlns:xlink="http://www.w3.org/1999/xlink">
<g><path style="opacity:0.967" fill="#5b6572" d="M 83.5,39.5 C 90.1667,39.5 96.8333,39.5 103.5,39.5C 101.077,49.7747 99.2441,60.108 98,70.5C 108.817,62.6914 120.317,61.5247 132.5,67C 137.27,70.8759 139.27,75.8759 138.5,82C 135.884,98.9662 132.551,115.799 128.5,132.5C 122.202,133.496 115.868,133.83 109.5,133.5C 112.305,117.976 115.305,102.476 118.5,87C 118.19,81.4853 115.19,78.6519 109.5,78.5C 102.557,79.6026 97.39,83.2693 94,89.5C 90.1963,103.715 86.8629,118.049 84,132.5C 77.5898,133.478 71.0898,133.811 64.5,133.5C 70.8333,102.167 77.1667,70.8333 83.5,39.5 Z"/></g>
<g><path style="opacity:0.964" fill="#5c6572" d="M 153.5,39.5 C 160.167,39.5 166.833,39.5 173.5,39.5C 167.067,70.1663 160.567,100.833 154,131.5C 147.789,133.434 141.289,134.101 134.5,133.5C 140.833,102.167 147.167,70.8333 153.5,39.5 Z"/></g>
<g><path style="opacity:0.963" fill="#5c6572" d="M 314.5,39.5 C 321.167,39.5 327.833,39.5 334.5,39.5C 328.067,70.1663 321.567,100.833 315,131.5C 308.789,133.434 302.289,134.101 295.5,133.5C 301.834,102.161 308.168,70.8279 314.5,39.5 Z"/></g>
<g><path style="opacity:0.96" fill="#5c6673" d="M 359.5,39.5 C 359.5,41.1667 359.5,42.8333 359.5,44.5C 352.548,73.9185 346.215,103.585 340.5,133.5C 333.833,133.5 327.167,133.5 320.5,133.5C 326.52,102.416 333.02,71.4163 340,40.5C 346.41,39.5223 352.91,39.189 359.5,39.5 Z"/></g>
<g><path style="opacity:0.962" fill="#5c6672" d="M -0.5,123.5 C -0.5,119.167 -0.5,114.833 -0.5,110.5C 2.64677,103.855 7.64677,99.0214 14.5,96C 25.8808,94.2191 37.2141,92.2191 48.5,90C 52.2497,83.5687 50.583,79.2354 43.5,77C 37.4775,75.6754 32.3108,77.1754 28,81.5C 26.9914,83.0249 26.4914,84.6916 26.5,86.5C 20.1579,86.6662 13.8246,86.4995 7.5,86C 12.203,69.6252 23.203,62.1252 40.5,63.5C 48.2595,63.0185 55.5928,64.5185 62.5,68C 67.0775,71.3213 69.4108,75.8213 69.5,81.5C 66.9876,95.8956 64.1542,110.229 61,124.5C 60.2716,127.23 60.4383,129.897 61.5,132.5C 54.8665,133.497 48.1998,133.83 41.5,133.5C 42.188,128.758 41.188,127.925 38.5,131C 27.9915,136.56 17.3249,136.894 6.5,132C 3.54644,129.559 1.21311,126.725 -0.5,123.5 Z M 43.5,102.5 C 44.675,102.281 45.675,102.614 46.5,103.5C 43.4952,119.829 34.4952,124.829 19.5,118.5C 17.6777,113.936 18.6777,110.103 22.5,107C 29.6061,105.371 36.6061,103.871 43.5,102.5 Z"/></g>
<g><path style="opacity:0.962" fill="#5b6672" d="M 189.5,63.5 C 195.842,63.3338 202.175,63.5005 208.5,64C 220.685,66.0177 227.019,73.1843 227.5,85.5C 221.167,85.5 214.833,85.5 208.5,85.5C 208.837,81.0057 206.837,78.1724 202.5,77C 198.739,76.2617 195.072,76.5951 191.5,78C 186.745,80.5095 186.412,83.5095 190.5,87C 197.363,89.7322 204.363,92.0656 211.5,94C 223.854,101.406 226.687,111.572 220,124.5C 212.208,132.379 202.708,136.045 191.5,135.5C 180.369,136.339 171.202,132.672 164,124.5C 161.896,120.078 161.063,115.412 161.5,110.5C 167.5,110.5 173.5,110.5 179.5,110.5C 178.959,115.919 181.293,119.419 186.5,121C 192.097,122.091 197.43,121.424 202.5,119C 204.714,116.12 204.714,113.12 202.5,110C 193.088,106.529 183.754,102.863 174.5,99C 167.475,91.2169 166.642,82.7169 172,73.5C 176.946,68.4485 182.779,65.1152 189.5,63.5 Z"/></g>
<g><path style="opacity:0.952" fill="#5b6672" d="M 257.5,63.5 C 287.331,61.3284 300.331,74.9951 296.5,104.5C 279.833,104.5 263.167,104.5 246.5,104.5C 245.215,112.783 248.548,117.95 256.5,120C 263.838,121.277 269.504,118.777 273.5,112.5C 280.167,111.167 286.833,111.167 293.5,112.5C 290.007,123.159 283.007,130.325 272.5,134C 236.47,139.971 222.303,125.138 230,89.5C 234.878,76.117 244.045,67.4503 257.5,63.5 Z M 260.5,78.5 C 271.601,76.0335 277.601,80.3668 278.5,91.5C 268.494,91.6665 258.494,91.4998 248.5,91C 251.358,85.644 255.358,81.4773 260.5,78.5 Z"/></g>
</svg>
