<?xml version="1.0" encoding="UTF-8"?>
<!DOCTYPE svg PUBLIC "-//W3C//DTD SVG 1.1//EN" "http://www.w3.org/Graphics/SVG/1.1/DTD/svg11.dtd">
<svg xmlns="http://www.w3.org/2000/svg" version="1.1" width="400px" height="332px" style="shape-rendering:geometricPrecision; text-rendering:geometricPrecision; image-rendering:optimizeQuality; fill-rule:evenodd; clip-rule:evenodd" xmlns:xlink="http://www.w3.org/1999/xlink">
<g><path style="opacity:1" fill="#e23e1a" d="M 198.5,2.5 C 218.886,10.2159 231.886,24.5492 237.5,45.5C 230.858,40.8412 223.858,36.6745 216.5,33C 214.866,32.5065 213.199,32.3398 211.5,32.5C 201.415,30.9329 191.415,31.2662 181.5,33.5C 173.638,34.5242 166.971,37.8575 161.5,43.5C 160.325,43.719 159.325,43.3857 158.5,42.5C 162.775,33.7529 167.609,25.4195 173,17.5C 180.188,10.3205 188.688,5.32055 198.5,2.5 Z"/></g>
<g><path style="opacity:1" fill="#e7541e" d="M 169.5,-0.5 C 176.5,-0.5 183.5,-0.5 190.5,-0.5C 192.905,0.768202 195.572,1.43487 198.5,1.5C 198.5,1.83333 198.5,2.16667 198.5,2.5C 188.688,5.32055 180.188,10.3205 173,17.5C 167.609,25.4195 162.775,33.7529 158.5,42.5C 159.325,43.3857 160.325,43.719 161.5,43.5C 155.688,47.6436 151.355,52.9769 148.5,59.5C 144.233,65.44 141.4,72.1067 140,79.5C 139.667,85.8333 139.333,92.1667 139,98.5C 138.329,97.7476 137.496,97.4142 136.5,97.5C 117.785,73.815 116.285,49.1483 132,23.5C 141.548,10.8138 154.048,2.81381 169.5,-0.5 Z"/></g>
<g><path style="opacity:1" fill="#fdfbfa" d="M 211.5,32.5 C 222.686,37.0177 231.02,44.6844 236.5,55.5C 245.542,80.9181 238.209,100.085 214.5,113C 212.26,113.977 209.927,114.477 207.5,114.5C 200.864,115.798 194.197,115.798 187.5,114.5C 176.777,111.472 168.11,105.472 161.5,96.5C 149.319,69.3802 155.986,48.3802 181.5,33.5C 191.415,31.2662 201.415,30.9329 211.5,32.5 Z"/></g>
<g><path style="opacity:1" fill="#832918" d="M 211.5,32.5 C 213.199,32.3398 214.866,32.5065 216.5,33C 223.858,36.6745 230.858,40.8412 237.5,45.5C 237.5,45.8333 237.5,46.1667 237.5,46.5C 237.81,49.7131 237.477,52.7131 236.5,55.5C 231.02,44.6844 222.686,37.0177 211.5,32.5 Z"/></g>
<g><path style="opacity:1" fill="#f4a913" d="M 205.5,-0.5 C 212.5,-0.5 219.5,-0.5 226.5,-0.5C 261.108,9.3375 276.942,32.3375 274,68.5C 271.794,79.5785 266.961,89.2452 259.5,97.5C 258.5,97.5 257.5,97.5 256.5,97.5C 258.21,77.2955 251.877,60.2955 237.5,46.5C 237.5,46.1667 237.5,45.8333 237.5,45.5C 231.886,24.5492 218.886,10.2159 198.5,2.5C 198.5,2.16667 198.5,1.83333 198.5,1.5C 201.067,1.27852 203.401,0.611848 205.5,-0.5 Z"/></g>
<g><path style="opacity:1" fill="#822819" d="M 191.5,51.5 C 213.111,50.2726 222.277,60.2726 219,81.5C 212.583,94.4246 202.417,98.5912 188.5,94C 176.218,86.4886 172.718,75.9886 178,62.5C 181.213,57.1075 185.713,53.4408 191.5,51.5 Z"/></g>
<g><path style="opacity:1" fill="#89361a" d="M 181.5,33.5 C 155.986,48.3802 149.319,69.3802 161.5,96.5C 159.946,95.0858 158.612,93.4192 157.5,91.5C 156.38,92.8334 155.047,93.3334 153.5,93C 156.62,89.4622 156.787,85.9622 154,82.5C 153.333,83.8333 152.667,83.8333 152,82.5C 151.291,78.1321 151.458,73.7988 152.5,69.5C 151.751,67.9644 150.751,66.6311 149.5,65.5C 150.32,63.8888 151.654,63.2222 153.5,63.5C 154.083,59.0706 152.416,57.7372 148.5,59.5C 151.355,52.9769 155.688,47.6436 161.5,43.5C 166.971,37.8575 173.638,34.5242 181.5,33.5 Z"/></g>
<g><path style="opacity:1" fill="#fcf7f4" d="M 194.5,62.5 C 205.847,62.2324 210.347,67.5657 208,78.5C 203.313,84.9353 197.479,86.1019 190.5,82C 184.655,74.0326 185.989,67.5326 194.5,62.5 Z"/></g>
<g><path style="opacity:1" fill="#85811a" d="M 237.5,46.5 C 251.877,60.2955 258.21,77.2955 256.5,97.5C 257.5,97.5 258.5,97.5 259.5,97.5C 258.473,99.1942 257.139,100.527 255.5,101.5C 251.39,104.395 247.056,107.062 242.5,109.5C 241.702,109.957 241.369,110.624 241.5,111.5C 237.458,111.523 233.792,112.689 230.5,115C 223.508,115.5 216.508,115.666 209.5,115.5C 208.508,115.672 207.842,115.338 207.5,114.5C 209.927,114.477 212.26,113.977 214.5,113C 238.209,100.085 245.542,80.9181 236.5,55.5C 237.477,52.7131 237.81,49.7131 237.5,46.5 Z"/></g>
<g><path style="opacity:1" fill="#883f18" d="M 161.5,96.5 C 168.11,105.472 176.777,111.472 187.5,114.5C 186.432,115.434 185.099,115.768 183.5,115.5C 177.464,115.64 171.464,115.307 165.5,114.5C 156.507,111.524 148.173,107.19 140.5,101.5C 138.833,100.5 137.5,99.1667 136.5,97.5C 137.496,97.4142 138.329,97.7476 139,98.5C 139.333,92.1667 139.667,85.8333 140,79.5C 141.4,72.1067 144.233,65.44 148.5,59.5C 152.416,57.7372 154.083,59.0706 153.5,63.5C 151.654,63.2222 150.32,63.8888 149.5,65.5C 150.751,66.6311 151.751,67.9644 152.5,69.5C 151.458,73.7988 151.291,78.1321 152,82.5C 152.667,83.8333 153.333,83.8333 154,82.5C 156.787,85.9622 156.62,89.4622 153.5,93C 155.047,93.3334 156.38,92.8334 157.5,91.5C 158.612,93.4192 159.946,95.0858 161.5,96.5 Z"/></g>
<g><path style="opacity:1" fill="#8dc6e4" d="M 140.5,101.5 C 148.173,107.19 156.507,111.524 165.5,114.5C 165.918,115.222 166.584,115.722 167.5,116C 173.016,116.817 178.35,116.651 183.5,115.5C 185.099,115.768 186.432,115.434 187.5,114.5C 194.197,115.798 200.864,115.798 207.5,114.5C 207.842,115.338 208.508,115.672 209.5,115.5C 216.655,116.655 223.988,116.822 231.5,116C 234.964,114.65 238.297,113.15 241.5,111.5C 241.369,110.624 241.702,109.957 242.5,109.5C 247.056,107.062 251.39,104.395 255.5,101.5C 247.326,130.511 228.16,145.844 198,147.5C 176.588,147.13 159.921,138.13 148,120.5C 144.609,114.488 142.109,108.155 140.5,101.5 Z"/></g>
<g><path style="opacity:1" fill="#90bcb6" d="M 241.5,111.5 C 238.297,113.15 234.964,114.65 231.5,116C 223.988,116.822 216.655,116.655 209.5,115.5C 216.508,115.666 223.508,115.5 230.5,115C 233.792,112.689 237.458,111.523 241.5,111.5 Z"/></g>
<g><path style="opacity:1" fill="#8d9391" d="M 165.5,114.5 C 171.464,115.307 177.464,115.64 183.5,115.5C 178.35,116.651 173.016,116.817 167.5,116C 166.584,115.722 165.918,115.222 165.5,114.5 Z"/></g>
<g><path style="opacity:1" fill="#1660a6" d="M -0.5,291.5 C -0.5,289.167 -0.5,286.833 -0.5,284.5C 10.7942,242.999 21.9608,201.332 33,159.5C 38.0333,147.804 47.0333,142.137 60,142.5C 71.8726,142.099 80.5392,147.099 86,157.5C 97.9691,201.043 109.469,244.71 120.5,288.5C 120.43,289.772 120.097,290.938 119.5,292C 110.833,292.667 102.167,292.667 93.5,292C 92.1068,290.829 91.2735,289.329 91,287.5C 88.163,275.486 85.3296,263.486 82.5,251.5C 67.4852,251.167 52.4852,251.501 37.5,252.5C 34.3151,265.594 30.8151,278.594 27,291.5C 17.8335,292.821 8.66679,292.821 -0.5,291.5 Z M 58.5,166.5 C 60.5666,166.532 61.8999,167.532 62.5,169.5C 67.1703,188.847 71.837,208.181 76.5,227.5C 65.5,227.5 54.5,227.5 43.5,227.5C 47.8689,206.983 52.8689,186.649 58.5,166.5 Z"/></g>
<g><path style="opacity:1" fill="#1660a7" d="M 399.5,190.5 C 399.5,209.167 399.5,227.833 399.5,246.5C 396.024,271.81 381.858,287.477 357,293.5C 356.022,296.669 356.522,299.503 358.5,302C 367.575,302.085 376.575,302.752 385.5,304C 390.962,318.112 386.295,325.112 371.5,325C 360.246,326.787 349.58,325.12 339.5,320C 331.499,313.005 327.999,304.171 329,293.5C 304.588,287.752 290.588,272.418 287,247.5C 285,228.167 285,208.833 287,189.5C 292.528,158.313 311.194,142.647 343,142.5C 375.197,142.987 394.031,158.987 399.5,190.5 Z M 338.5,167.5 C 359.519,167.016 370.352,177.35 371,198.5C 371.667,211.833 371.667,225.167 371,238.5C 369.434,263.068 356.601,272.902 332.5,268C 320.787,262.774 314.954,253.607 315,240.5C 314.333,225.833 314.333,211.167 315,196.5C 315.517,180.516 323.351,170.849 338.5,167.5 Z"/></g>
<g><path style="opacity:1" fill="#1660a7" d="M 181.5,331.5 C 173.833,331.5 166.167,331.5 158.5,331.5C 158.217,330.711 157.717,330.044 157,329.5C 156.333,281.833 156.333,234.167 157,186.5C 162.045,183.525 167.545,181.692 173.5,181C 186.419,178.753 199.419,178.087 212.5,179C 233.333,182.5 245.5,194.667 249,215.5C 251,229.167 251,242.833 249,256.5C 245.192,278.826 232.025,291.326 209.5,294C 200.881,294.763 192.381,294.263 184,292.5C 183.667,304.833 183.333,317.167 183,329.5C 182.283,330.044 181.783,330.711 181.5,331.5 Z M 186.5,270.5 C 185.5,270.5 184.5,270.5 183.5,270.5C 183.5,247.5 183.5,224.5 183.5,201.5C 189.187,201.554 194.854,201.221 200.5,200.5C 212.542,200.046 219.709,205.712 222,217.5C 222.667,230.167 222.667,242.833 222,255.5C 221.024,263.304 216.858,268.471 209.5,271C 201.754,271.798 194.087,271.631 186.5,270.5 Z"/></g>
<g><path style="opacity:0.529" fill="#4c8bcf" d="M 183.5,201.5 C 183.5,224.5 183.5,247.5 183.5,270.5C 184.5,270.5 185.5,270.5 186.5,270.5C 185.432,271.434 184.099,271.768 182.5,271.5C 182.169,247.994 182.502,224.661 183.5,201.5 Z"/></g>
</svg>
