<?xml version="1.0" encoding="UTF-8"?>
<!DOCTYPE svg PUBLIC "-//W3C//DTD SVG 1.1//EN" "http://www.w3.org/Graphics/SVG/1.1/DTD/svg11.dtd">
<svg xmlns="http://www.w3.org/2000/svg" version="1.1" width="842px" height="595px" style="shape-rendering:geometricPrecision; text-rendering:geometricPrecision; image-rendering:optimizeQuality; fill-rule:evenodd; clip-rule:evenodd" xmlns:xlink="http://www.w3.org/1999/xlink">
<g><path style="opacity:0.987" fill="#e3012b" d="M 716.5,225.5 C 738.008,224.378 758.008,229.211 776.5,240C 791.746,254.192 794.579,270.692 785,289.5C 771.597,312.904 753.43,331.737 730.5,346C 716.886,354.641 702.552,361.974 687.5,368C 685.866,368.494 684.199,368.66 682.5,368.5C 682.238,367.022 682.571,365.689 683.5,364.5C 705.87,349.302 723.037,329.635 735,305.5C 742.927,277.534 732.761,259.701 704.5,252C 681.793,246.139 658.959,245.306 636,249.5C 634.731,248.095 634.231,246.429 634.5,244.5C 660.997,234.04 688.331,227.707 716.5,225.5 Z"/></g>
<g><path style="opacity:0.973" fill="#020908" d="M 52.5,276.5 C 86.8822,276.027 121.216,276.527 155.5,278C 165.762,282.009 171.595,289.509 173,300.5C 173.667,315.167 173.667,329.833 173,344.5C 171.256,355.237 165.423,362.737 155.5,367C 121.216,368.473 86.8822,368.973 52.5,368.5C 52.5,337.833 52.5,307.167 52.5,276.5 Z M 82.5,300.5 C 101.503,300.333 120.503,300.5 139.5,301C 140.667,301.5 141.5,302.333 142,303.5C 142.667,316.167 142.667,328.833 142,341.5C 141.5,342.667 140.667,343.5 139.5,344C 120.503,344.5 101.503,344.667 82.5,344.5C 82.5,329.833 82.5,315.167 82.5,300.5 Z"/></g>
<g><path style="opacity:0.955" fill="#020908" d="M 185.5,276.5 C 195.833,276.5 206.167,276.5 216.5,276.5C 216.5,307.167 216.5,337.833 216.5,368.5C 206.167,368.5 195.833,368.5 185.5,368.5C 185.5,337.833 185.5,307.167 185.5,276.5 Z"/></g>
<g><path style="opacity:0.976" fill="#020908" d="M 229.5,276.5 C 259.502,276.333 289.502,276.5 319.5,277C 335.579,282.456 342.912,293.789 341.5,311C 343.024,329.344 335.024,340.677 317.5,345C 298.17,345.5 278.836,345.667 259.5,345.5C 259.5,353.167 259.5,360.833 259.5,368.5C 249.5,368.5 239.5,368.5 229.5,368.5C 229.5,337.833 229.5,307.167 229.5,276.5 Z M 259.5,300.5 C 275.503,300.333 291.503,300.5 307.5,301C 310.041,303.749 311.041,307.082 310.5,311C 310.333,313.5 310.167,316 310,318.5C 309.097,319.701 307.931,320.535 306.5,321C 290.837,321.5 275.17,321.667 259.5,321.5C 259.5,314.5 259.5,307.5 259.5,300.5 Z"/></g>
<g><path style="opacity:0.974" fill="#020908" d="M 374.5,276.5 C 396.503,276.333 418.503,276.5 440.5,277C 452.306,279.473 459.473,286.64 462,298.5C 462.5,321.831 462.667,345.164 462.5,368.5C 452.5,368.5 442.5,368.5 432.5,368.5C 432.5,360.833 432.5,353.167 432.5,345.5C 416.167,345.5 399.833,345.5 383.5,345.5C 383.5,353.167 383.5,360.833 383.5,368.5C 373.167,368.5 362.833,368.5 352.5,368.5C 352.05,344.123 352.55,319.79 354,295.5C 357.218,285.16 364.051,278.827 374.5,276.5 Z M 385.5,300.5 C 400.17,300.333 414.837,300.5 429.5,301C 430.893,302.171 431.727,303.671 432,305.5C 432.499,310.823 432.666,316.156 432.5,321.5C 416.167,321.5 399.833,321.5 383.5,321.5C 383.334,315.491 383.501,309.491 384,303.5C 384.513,302.473 385.013,301.473 385.5,300.5 Z"/></g>
<g><path style="opacity:0.972" fill="#020908" d="M 475.5,276.5 C 505.502,276.333 535.502,276.5 565.5,277C 582.679,282.493 589.846,294.326 587,312.5C 585.986,320.362 582.486,326.862 576.5,332C 580.458,335.421 583.292,339.588 585,344.5C 586.321,352.439 586.821,360.439 586.5,368.5C 576.5,368.5 566.5,368.5 556.5,368.5C 556.666,361.825 556.5,355.158 556,348.5C 555.167,347.667 554.333,346.833 553.5,346C 537.503,345.5 521.503,345.333 505.5,345.5C 505.5,353.167 505.5,360.833 505.5,368.5C 495.5,368.5 485.5,368.5 475.5,368.5C 475.5,337.833 475.5,307.167 475.5,276.5 Z M 505.5,300.5 C 521.503,300.333 537.503,300.5 553.5,301C 554.667,301.5 555.5,302.333 556,303.5C 556.667,308.5 556.667,313.5 556,318.5C 555.167,319.333 554.333,320.167 553.5,321C 537.503,321.5 521.503,321.667 505.5,321.5C 505.5,314.5 505.5,307.5 505.5,300.5 Z"/></g>
<g><path style="opacity:0.979" fill="#020908" d="M 598.5,276.5 C 634.5,276.5 670.5,276.5 706.5,276.5C 706.5,284.5 706.5,292.5 706.5,300.5C 693.5,300.5 680.5,300.5 667.5,300.5C 667.5,323.167 667.5,345.833 667.5,368.5C 657.5,368.5 647.5,368.5 637.5,368.5C 637.5,345.833 637.5,323.167 637.5,300.5C 624.5,300.5 611.5,300.5 598.5,300.5C 598.5,292.5 598.5,284.5 598.5,276.5 Z"/></g>
</svg>
