<?xml version="1.0" encoding="UTF-8"?>
<!DOCTYPE svg PUBLIC "-//W3C//DTD SVG 1.1//EN" "http://www.w3.org/Graphics/SVG/1.1/DTD/svg11.dtd">
<svg xmlns="http://www.w3.org/2000/svg" version="1.1" width="3840px" height="2160px" style="shape-rendering:geometricPrecision; text-rendering:geometricPrecision; image-rendering:optimizeQuality; fill-rule:evenodd; clip-rule:evenodd" xmlns:xlink="http://www.w3.org/1999/xlink">
<g><path style="opacity:1" fill="#666766" d="M 240.5,849.5 C 311.833,849.5 383.167,849.5 454.5,849.5C 454.667,915.834 454.5,982.168 454,1048.5C 451.592,1065.8 446.259,1082.14 438,1097.5C 425.208,1119.64 409.374,1139.47 390.5,1157C 347.141,1186.94 299.808,1195.94 248.5,1184C 198.599,1169.09 172.099,1135.59 169,1083.5C 166.901,1047.45 178.401,1016.62 203.5,991C 214.453,982.063 226.787,975.729 240.5,972C 278.144,968.31 295.311,985.477 292,1023.5C 291.327,1028.52 289.66,1033.19 287,1037.5C 273.119,1054.38 259.619,1071.55 246.5,1089C 249.647,1093.31 253.314,1097.15 257.5,1100.5C 303.167,1063.33 348.833,1026.17 394.5,989C 356.734,937.291 305.734,913.958 241.5,919C 172.325,930.331 126.492,969.164 104,1035.5C 89.5146,1091.08 99.8479,1141.41 135,1186.5C 182.173,1239 240.006,1256.16 308.5,1238C 340.118,1227.69 366.451,1209.69 387.5,1184C 409.508,1183.17 431.508,1183.33 453.5,1184.5C 417.78,1252.89 361.78,1293.72 285.5,1307C 186.159,1316.24 110.325,1278.74 58,1194.5C 24.4132,1130.71 19.4132,1064.71 43,996.5C 72.5038,924.002 125.004,877.168 200.5,856C 213.855,853.051 227.188,850.885 240.5,849.5 Z"/></g>
<g><path style="opacity:1" fill="#000000" d="M 3479.5,920.5 C 3500.83,920.5 3522.17,920.5 3543.5,920.5C 3543.5,940.5 3543.5,960.5 3543.5,980.5C 3522.17,980.5 3500.83,980.5 3479.5,980.5C 3479.5,960.5 3479.5,940.5 3479.5,920.5 Z"/></g>
<g><path style="opacity:1" fill="#000000" d="M 688.5,924.5 C 767.833,924.5 847.167,924.5 926.5,924.5C 926.5,943.833 926.5,963.167 926.5,982.5C 869.5,982.5 812.5,982.5 755.5,982.5C 755.5,1004.83 755.5,1027.17 755.5,1049.5C 807.833,1049.5 860.167,1049.5 912.5,1049.5C 912.5,1068.83 912.5,1088.17 912.5,1107.5C 860.167,1107.5 807.833,1107.5 755.5,1107.5C 755.5,1134.83 755.5,1162.17 755.5,1189.5C 814.833,1189.5 874.167,1189.5 933.5,1189.5C 933.5,1209.17 933.5,1228.83 933.5,1248.5C 851.833,1248.5 770.167,1248.5 688.5,1248.5C 688.5,1140.5 688.5,1032.5 688.5,924.5 Z"/></g>
<g><path style="opacity:1" fill="#000000" d="M 977.5,924.5 C 998.833,924.5 1020.17,924.5 1041.5,924.5C 1041.5,1032.5 1041.5,1140.5 1041.5,1248.5C 1020.17,1248.5 998.833,1248.5 977.5,1248.5C 977.5,1140.5 977.5,1032.5 977.5,924.5 Z"/></g>
<g><path style="opacity:1" fill="#000000" d="M 1348.5,924.5 C 1369.83,924.5 1391.17,924.5 1412.5,924.5C 1412.33,981.834 1412.5,1039.17 1413,1096.5C 1438.5,1067 1464,1037.5 1489.5,1008C 1515.51,1007.17 1541.51,1007.33 1567.5,1008.5C 1539.64,1039.2 1511.97,1070.03 1484.5,1101C 1510.87,1146.23 1537.37,1191.4 1564,1236.5C 1566.15,1240.44 1567.98,1244.44 1569.5,1248.5C 1544.16,1248.83 1518.82,1248.5 1493.5,1247.5C 1474.87,1213.71 1456.03,1180.04 1437,1146.5C 1428.77,1154.64 1420.77,1162.97 1413,1171.5C 1412.5,1197.16 1412.33,1222.83 1412.5,1248.5C 1391.17,1248.5 1369.83,1248.5 1348.5,1248.5C 1348.5,1140.5 1348.5,1032.5 1348.5,924.5 Z"/></g>
<g><path style="opacity:1" fill="#000000" d="M 2435.5,924.5 C 2456.83,924.5 2478.17,924.5 2499.5,924.5C 2499.33,981.834 2499.5,1039.17 2500,1096.5C 2525.5,1067 2551,1037.5 2576.5,1008C 2602.51,1007.17 2628.51,1007.33 2654.5,1008.5C 2626.6,1039.31 2598.93,1070.31 2571.5,1101.5C 2600.17,1150.17 2628.83,1198.83 2657.5,1247.5C 2631.83,1248.83 2606.17,1248.83 2580.5,1247.5C 2562.17,1213.51 2543.34,1179.84 2524,1146.5C 2516.36,1155.14 2508.36,1163.47 2500,1171.5C 2499.5,1197.16 2499.33,1222.83 2499.5,1248.5C 2478.17,1248.5 2456.83,1248.5 2435.5,1248.5C 2435.5,1140.5 2435.5,1032.5 2435.5,924.5 Z"/></g>
<g><path style="opacity:1" fill="#000000" d="M 3359.5,924.5 C 3380.83,924.5 3402.17,924.5 3423.5,924.5C 3423.5,1032.5 3423.5,1140.5 3423.5,1248.5C 3402.5,1248.5 3381.5,1248.5 3360.5,1248.5C 3360.67,1238.49 3360.5,1228.49 3360,1218.5C 3349.32,1236.15 3333.82,1247.32 3313.5,1252C 3254.56,1261.04 3216.06,1237.21 3198,1180.5C 3186.3,1138.44 3188.3,1097.11 3204,1056.5C 3226.39,1013.89 3261.55,996.055 3309.5,1003C 3330.69,1007.88 3347.19,1019.38 3359,1037.5C 3359.5,999.835 3359.67,962.168 3359.5,924.5 Z M 3305.5,1056.5 C 3329.35,1056 3345.85,1066.66 3355,1088.5C 3364.74,1116.21 3364.74,1143.88 3355,1171.5C 3342.99,1194.93 3323.82,1204.76 3297.5,1201C 3281.61,1196.12 3270.45,1185.95 3264,1170.5C 3255.2,1145.49 3254.2,1120.16 3261,1094.5C 3267.82,1072.16 3282.65,1059.5 3305.5,1056.5 Z"/></g>
<g><path style="opacity:1" fill="#000000" d="M 1605.5,942.5 C 1626.83,942.5 1648.17,942.5 1669.5,942.5C 1669.5,964.167 1669.5,985.833 1669.5,1007.5C 1682.17,1007.5 1694.83,1007.5 1707.5,1007.5C 1707.5,1022.83 1707.5,1038.17 1707.5,1053.5C 1694.5,1053.5 1681.5,1053.5 1668.5,1053.5C 1668.02,1100.54 1668.52,1147.54 1670,1194.5C 1672.17,1198.01 1675.34,1200.18 1679.5,1201C 1684.17,1201.43 1688.84,1201.93 1693.5,1202.5C 1698.14,1201.77 1702.81,1201.44 1707.5,1201.5C 1707.5,1217.5 1707.5,1233.5 1707.5,1249.5C 1686.83,1250.95 1666.16,1250.78 1645.5,1249C 1621.14,1246.3 1607.97,1232.8 1606,1208.5C 1605.5,1156.83 1605.33,1105.17 1605.5,1053.5C 1594.83,1053.5 1584.17,1053.5 1573.5,1053.5C 1573.5,1038.17 1573.5,1022.83 1573.5,1007.5C 1584.17,1007.5 1594.83,1007.5 1605.5,1007.5C 1605.5,985.833 1605.5,964.167 1605.5,942.5 Z"/></g>
<g><path style="opacity:1" fill="#000000" d="M 1190.5,1001.5 C 1261.01,1002.51 1299.85,1038.17 1307,1108.5C 1308.14,1120.81 1308.64,1133.14 1308.5,1145.5C 1254.17,1145.5 1199.83,1145.5 1145.5,1145.5C 1149.42,1191.96 1174.09,1209.8 1219.5,1199C 1229.59,1194.58 1236.59,1187.25 1240.5,1177C 1262.16,1177.26 1283.82,1177.43 1305.5,1177.5C 1292.26,1222.56 1262.26,1248.06 1215.5,1254C 1133.85,1261 1089.35,1223.83 1082,1142.5C 1079.21,1114.46 1083.21,1087.46 1094,1061.5C 1106.78,1034.05 1127.61,1015.89 1156.5,1007C 1167.81,1004.08 1179.14,1002.24 1190.5,1001.5 Z M 1185.5,1054.5 C 1220.19,1052.52 1239.19,1068.85 1242.5,1103.5C 1210.5,1103.67 1178.5,1103.5 1146.5,1103C 1148.31,1085.03 1156.31,1070.7 1170.5,1060C 1175.43,1057.64 1180.43,1055.8 1185.5,1054.5 Z"/></g>
<g><path style="opacity:1" fill="#000000" d="M 1862.5,1001.5 C 1870.21,1001.27 1877.88,1001.6 1885.5,1002.5C 1885.5,1024.17 1885.5,1045.83 1885.5,1067.5C 1868.77,1065.07 1852.44,1066.57 1836.5,1072C 1825.54,1076.96 1818.04,1085.12 1814,1096.5C 1811.71,1102.98 1810.38,1109.64 1810,1116.5C 1809.5,1160.5 1809.33,1204.5 1809.5,1248.5C 1788.5,1248.5 1767.5,1248.5 1746.5,1248.5C 1746.5,1168.17 1746.5,1087.83 1746.5,1007.5C 1766.83,1007.5 1787.17,1007.5 1807.5,1007.5C 1807.33,1020.84 1807.5,1034.17 1808,1047.5C 1815.66,1028.84 1828.49,1015.01 1846.5,1006C 1851.87,1004.16 1857.21,1002.66 1862.5,1001.5 Z"/></g>
<g><path style="opacity:1" fill="#000000" d="M 2006.5,1001.5 C 2092.84,999.679 2138.18,1041.85 2142.5,1128C 2140.16,1207.67 2099.33,1249.84 2020,1254.5C 1940.66,1249.83 1899.83,1207.66 1897.5,1128C 1897.31,1099.24 1904.81,1072.74 1920,1048.5C 1942,1020.42 1970.83,1004.75 2006.5,1001.5 Z M 2011.5,1055.5 C 2051.36,1054.19 2072.86,1073.52 2076,1113.5C 2078.59,1134.71 2075.59,1155.04 2067,1174.5C 2054.66,1194.08 2036.83,1202.58 2013.5,1200C 1992.41,1197.9 1977.91,1187.07 1970,1167.5C 1962.13,1143.05 1961.47,1118.38 1968,1093.5C 1974.65,1071.67 1989.15,1059.01 2011.5,1055.5 Z"/></g>
<g><path style="opacity:1" fill="#000000" d="M 2258.5,1001.5 C 2282.64,999.794 2306.31,1002.29 2329.5,1009C 2362.86,1021.52 2380.19,1045.69 2381.5,1081.5C 2360.83,1081.5 2340.17,1081.5 2319.5,1081.5C 2317.72,1063.22 2307.72,1053.05 2289.5,1051C 2276.15,1049.43 2263.15,1050.76 2250.5,1055C 2241.9,1060.12 2238.73,1067.62 2241,1077.5C 2243.17,1081 2246,1083.83 2249.5,1086C 2254.68,1088.39 2260.01,1090.39 2265.5,1092C 2291.53,1096.92 2317.19,1103.26 2342.5,1111C 2381.93,1126.03 2396.43,1154.2 2386,1195.5C 2378.35,1219.81 2362.52,1236.31 2338.5,1245C 2300.53,1257.52 2262.53,1257.52 2224.5,1245C 2189.42,1232.44 2171.09,1207.6 2169.5,1170.5C 2191.17,1170.5 2212.83,1170.5 2234.5,1170.5C 2235.11,1186.61 2243.11,1197.11 2258.5,1202C 2275.19,1206.6 2291.86,1206.6 2308.5,1202C 2322.07,1196.7 2326.9,1187.2 2323,1173.5C 2318.9,1169.2 2314.07,1166.04 2308.5,1164C 2284.97,1157.83 2261.3,1152.16 2237.5,1147C 2220.57,1142.93 2205.74,1135.1 2193,1123.5C 2179.58,1107.14 2174.91,1088.48 2179,1067.5C 2183.77,1040.12 2198.94,1020.95 2224.5,1010C 2235.66,1005.88 2246.99,1003.04 2258.5,1001.5 Z"/></g>
<g><path style="opacity:1" fill="#000000" d="M 2759.5,1001.5 C 2784.79,999.277 2809.45,1002.11 2833.5,1010C 2857.59,1019.08 2871.75,1036.25 2876,1061.5C 2876.33,1111.17 2876.67,1160.83 2877,1210.5C 2877.23,1218.33 2879.23,1225.67 2883,1232.5C 2884.9,1234.53 2887.06,1236.2 2889.5,1237.5C 2890.49,1240.77 2890.82,1244.1 2890.5,1247.5C 2867.5,1247.5 2844.5,1247.5 2821.5,1247.5C 2819.09,1238.64 2817.26,1229.64 2816,1220.5C 2791.91,1246.76 2762.08,1257.59 2726.5,1253C 2687.42,1246.42 2667.42,1223.25 2666.5,1183.5C 2667.26,1144.14 2686.59,1119.3 2724.5,1109C 2747.79,1105.05 2771.12,1101.39 2794.5,1098C 2814.07,1093.62 2819.23,1082.45 2810,1064.5C 2803.46,1057.31 2795.29,1053.48 2785.5,1053C 2774.92,1051.71 2764.59,1052.71 2754.5,1056C 2746.94,1059.23 2741.77,1064.73 2739,1072.5C 2737.53,1076.42 2736.36,1080.42 2735.5,1084.5C 2715.18,1085.5 2694.84,1085.83 2674.5,1085.5C 2679,1033.33 2707.34,1005.33 2759.5,1001.5 Z M 2813.5,1132.5 C 2815.07,1146.43 2814.57,1160.43 2812,1174.5C 2805.11,1191.06 2792.94,1201.56 2775.5,1206C 2766.56,1208.61 2757.56,1208.94 2748.5,1207C 2733.25,1199.99 2727.41,1188.16 2731,1171.5C 2735.09,1158.42 2743.92,1150.58 2757.5,1148C 2771.85,1145.11 2786.19,1142.11 2800.5,1139C 2805.37,1137.67 2809.7,1135.5 2813.5,1132.5 Z"/></g>
<g><path style="opacity:1" fill="#000000" d="M 3048.5,1001.5 C 3070.23,999.066 3090.9,1002.57 3110.5,1012C 3132.67,1025.48 3144.84,1045.32 3147,1071.5C 3147.5,1130.5 3147.67,1189.5 3147.5,1248.5C 3126.17,1248.5 3104.83,1248.5 3083.5,1248.5C 3083.98,1193.13 3083.48,1137.8 3082,1082.5C 3078.94,1069.11 3070.78,1060.61 3057.5,1057C 3019.55,1051.89 2998.72,1068.39 2995,1106.5C 2994.5,1153.83 2994.33,1201.17 2994.5,1248.5C 2973.5,1248.5 2952.5,1248.5 2931.5,1248.5C 2931.5,1168.17 2931.5,1087.83 2931.5,1007.5C 2951.83,1007.5 2972.17,1007.5 2992.5,1007.5C 2992.33,1018.51 2992.5,1029.51 2993,1040.5C 3005.87,1019.46 3024.37,1006.46 3048.5,1001.5 Z"/></g>
<g><path style="opacity:1" fill="#000000" d="M 3679.5,1001.5 C 3704.79,999.277 3729.46,1002.11 3753.5,1010C 3777.15,1018.97 3791.31,1035.8 3796,1060.5C 3796.33,1110.5 3796.67,1160.5 3797,1210.5C 3797.23,1217.07 3798.56,1223.4 3801,1229.5C 3803.03,1233.03 3805.86,1235.69 3809.5,1237.5C 3810.49,1240.77 3810.82,1244.1 3810.5,1247.5C 3787.5,1247.5 3764.5,1247.5 3741.5,1247.5C 3738.88,1238.68 3737.05,1229.68 3736,1220.5C 3706.4,1251.44 3670.9,1260.94 3629.5,1249C 3600.67,1236.95 3586.34,1215.12 3586.5,1183.5C 3587.19,1145.66 3605.52,1121.16 3641.5,1110C 3665.72,1105.35 3690.05,1101.35 3714.5,1098C 3734.07,1093.65 3739.24,1082.48 3730,1064.5C 3723.46,1057.31 3715.29,1053.48 3705.5,1053C 3694.92,1051.71 3684.59,1052.71 3674.5,1056C 3666.94,1059.23 3661.77,1064.73 3659,1072.5C 3657.53,1076.42 3656.36,1080.42 3655.5,1084.5C 3635.18,1085.5 3614.84,1085.83 3594.5,1085.5C 3599,1033.33 3627.34,1005.33 3679.5,1001.5 Z M 3731.5,1133.5 C 3742.28,1178.2 3724.61,1203.2 3678.5,1208.5C 3658.96,1206.79 3649.46,1196.12 3650,1176.5C 3652.66,1160.84 3661.83,1151.34 3677.5,1148C 3690.48,1145.23 3703.48,1142.56 3716.5,1140C 3721.97,1138.68 3726.97,1136.52 3731.5,1133.5 Z"/></g>
<g><path style="opacity:1" fill="#000000" d="M 3479.5,1007.5 C 3500.83,1007.5 3522.17,1007.5 3543.5,1007.5C 3543.5,1087.83 3543.5,1168.17 3543.5,1248.5C 3522.17,1248.5 3500.83,1248.5 3479.5,1248.5C 3479.5,1168.17 3479.5,1087.83 3479.5,1007.5 Z"/></g>
</svg>
