<?xml version="1.0" encoding="UTF-8"?>
<!DOCTYPE svg PUBLIC "-//W3C//DTD SVG 1.1//EN" "http://www.w3.org/Graphics/SVG/1.1/DTD/svg11.dtd">
<svg xmlns="http://www.w3.org/2000/svg" version="1.1" width="2835px" height="2552px" style="shape-rendering:geometricPrecision; text-rendering:geometricPrecision; image-rendering:optimizeQuality; fill-rule:evenodd; clip-rule:evenodd" xmlns:xlink="http://www.w3.org/1999/xlink">
<g><path style="opacity:1" fill="#003264" d="M -0.5,-0.5 C 944.5,-0.5 1889.5,-0.5 2834.5,-0.5C 2834.5,850.167 2834.5,1700.83 2834.5,2551.5C 1889.5,2551.5 944.5,2551.5 -0.5,2551.5C -0.5,1700.83 -0.5,850.167 -0.5,-0.5 Z"/></g>
<g><path style="opacity:1" fill="#fdfdfd" d="M 1418.5,1499.5 C 1444.5,1499.33 1470.5,1499.5 1496.5,1500C 1503.22,1502.05 1507.05,1506.55 1508,1513.5C 1508.01,1734.86 1508.67,1956.19 1510,2177.5C 1512.56,2186.82 1518.06,2193.66 1526.5,2198C 1540.9,2204.06 1555.9,2206.06 1571.5,2204C 1582.06,2201.54 1592.73,2200.21 1603.5,2200C 1604.67,2201.17 1605.83,2202.33 1607,2203.5C 1611.04,2220.74 1614.54,2238.07 1617.5,2255.5C 1617.91,2260.51 1616.24,2264.68 1612.5,2268C 1575.47,2282.67 1537.13,2287.34 1497.5,2282C 1449.09,2275.25 1419.59,2248.09 1409,2200.5C 1407.24,2192.6 1406.24,2184.6 1406,2176.5C 1405.33,1955.17 1405.33,1733.83 1406,1512.5C 1407.68,1505.65 1411.85,1501.32 1418.5,1499.5 Z"/></g>
<g><path style="opacity:1" fill="#fefefe" d="M 418.5,1679.5 C 488.453,1677.21 557.12,1685.37 624.5,1704C 629.849,1706.5 632.515,1710.67 632.5,1716.5C 630.09,1735.96 626.924,1755.29 623,1774.5C 622.167,1776.67 620.667,1778.17 618.5,1779C 613.833,1779.67 609.167,1779.67 604.5,1779C 563.845,1770.72 522.845,1764.72 481.5,1761C 453.002,1759.33 424.668,1760.66 396.5,1765C 370.894,1769.05 349.394,1780.55 332,1799.5C 315.173,1825.71 313.173,1853.04 326,1881.5C 334.441,1895.61 346.274,1905.77 361.5,1912C 382.1,1920.15 403.433,1925.48 425.5,1928C 458.719,1931.7 491.719,1936.7 524.5,1943C 554.701,1948.83 582.034,1960.83 606.5,1979C 626.75,1996.99 640.25,2019.16 647,2045.5C 656.094,2086.34 655.428,2127 645,2167.5C 629.905,2212.93 600.072,2244.43 555.5,2262C 519.717,2275.24 482.717,2282.58 444.5,2284C 367.978,2286.3 293.645,2274.64 221.5,2249C 214.219,2245.95 210.886,2240.45 211.5,2232.5C 214.492,2214.21 218.659,2196.21 224,2178.5C 228.228,2173.91 233.394,2172.41 239.5,2174C 295.336,2192.36 352.669,2202.2 411.5,2203.5C 436.97,2204.63 461.97,2201.8 486.5,2195C 536.087,2179.69 557.254,2146.19 550,2094.5C 546.298,2066.94 531.465,2048.11 505.5,2038C 497.88,2035.51 490.213,2033.18 482.5,2031C 441.169,2024.5 399.836,2017.83 358.5,2011C 249.517,1988.91 203.35,1922.75 220,1812.5C 232.908,1755.92 266.741,1717.75 321.5,1698C 353.1,1687.28 385.434,1681.11 418.5,1679.5 Z"/></g>
<g><path style="opacity:1" fill="#fefefe" d="M 986.5,1679.5 C 1033.48,1677 1079.81,1681.16 1125.5,1692C 1204.21,1715.2 1252.04,1767.03 1269,1847.5C 1282.23,1933.4 1282.89,2019.4 1271,2105.5C 1255.21,2197.96 1201.71,2254.79 1110.5,2276C 1048.82,2287.33 987.153,2287.33 925.5,2276C 838.793,2256.63 786.293,2203.46 768,2116.5C 758.336,2058.21 755.003,1999.55 758,1940.5C 759.412,1912.71 762.079,1885.04 766,1857.5C 785.571,1756.26 846.405,1698.43 948.5,1684C 961.297,1682.32 973.964,1680.82 986.5,1679.5 Z"/></g>
<g><path style="opacity:1" fill="#fefefe" d="M 1922.5,1679.5 C 1968.82,1677.62 2014.82,1680.45 2060.5,1688C 2083.3,1692.49 2104.97,1700.16 2125.5,1711C 2151.24,1728.27 2167.74,1752.11 2175,1782.5C 2177.31,1793.38 2178.65,1804.38 2179,1815.5C 2179.67,1935.5 2179.67,2055.5 2179,2175.5C 2178.34,2189.46 2176.01,2203.13 2172,2216.5C 2163.22,2235.94 2148.72,2249.11 2128.5,2256C 2101.91,2265.66 2074.57,2272.32 2046.5,2276C 1970.01,2287.89 1893.68,2287.22 1817.5,2274C 1774.35,2264.53 1739.51,2242.36 1713,2207.5C 1696.19,2181.39 1687.19,2152.72 1686,2121.5C 1684.74,2098.39 1685.74,2075.39 1689,2052.5C 1699.81,1995.68 1733.31,1960.18 1789.5,1946C 1808.83,1942 1828.17,1938 1847.5,1934C 1924.51,1921.17 2001.51,1908.33 2078.5,1895.5C 2078.67,1874.5 2078.5,1853.5 2078,1832.5C 2079.14,1800.23 2064.3,1779.73 2033.5,1771C 2015.17,1766.17 1996.5,1763.5 1977.5,1763C 1931.17,1760.3 1885.17,1762.97 1839.5,1771C 1806.78,1778.12 1774.11,1785.45 1741.5,1793C 1737.83,1793.67 1734.17,1793.67 1730.5,1793C 1729.67,1792.17 1728.83,1791.33 1728,1790.5C 1723.27,1772.3 1718.94,1753.97 1715,1735.5C 1714.33,1730.83 1714.33,1726.17 1715,1721.5C 1716.12,1719.38 1717.62,1717.54 1719.5,1716C 1785.86,1696.05 1853.52,1683.89 1922.5,1679.5 Z"/></g>
<g><path style="opacity:1" fill="#fdfdfd" d="M 2552.5,1679.5 C 2569.5,1679.33 2586.5,1679.5 2603.5,1680C 2609.76,1680.43 2615.26,1682.6 2620,1686.5C 2620.67,1687.83 2621.33,1689.17 2622,1690.5C 2622.67,1712.83 2622.67,1735.17 2622,1757.5C 2620.83,1761.33 2618.33,1763.83 2614.5,1765C 2551.31,1763.71 2488.98,1770.21 2427.5,1784.5C 2427.67,1942.83 2427.5,2101.17 2427,2259.5C 2424.66,2265.76 2420.16,2269.26 2413.5,2270C 2388.5,2270.67 2363.5,2270.67 2338.5,2270C 2330.71,2268.87 2326.21,2264.37 2325,2256.5C 2324.33,2097.5 2324.33,1938.5 2325,1779.5C 2325.04,1753.5 2336.54,1734.67 2359.5,1723C 2377.92,1713.3 2397.25,1705.97 2417.5,1701C 2462,1689.82 2507,1682.65 2552.5,1679.5 Z"/></g>
<g><path style="opacity:1" fill="#003264" d="M 1000.5,1757.5 C 1025.39,1756.49 1050.06,1758.32 1074.5,1763C 1120.1,1773.27 1149.6,1800.77 1163,1845.5C 1169.77,1873.41 1173.1,1901.75 1173,1930.5C 1174.28,1980.89 1173.28,2031.22 1170,2081.5C 1167.43,2109.8 1158.43,2135.8 1143,2159.5C 1120.39,2186.06 1091.56,2200.89 1056.5,2204C 1026.42,2206.49 996.422,2205.82 966.5,2202C 917.609,2192.44 886.775,2163.61 874,2115.5C 871.353,2105.98 869.353,2096.31 868,2086.5C 863.318,2029.9 862.318,1973.24 865,1916.5C 864.89,1885.78 870.223,1856.12 881,1827.5C 897.125,1792.72 923.958,1771.22 961.5,1763C 974.591,1760.75 987.591,1758.92 1000.5,1757.5 Z"/></g>
<g><path style="opacity:1" fill="#003264" d="M 2074.5,1973.5 C 2075.5,1973.5 2076.5,1973.5 2077.5,1973.5C 2077.5,2045.5 2077.5,2117.5 2077.5,2189.5C 2040.38,2200.62 2002.38,2206.79 1963.5,2208C 1930.16,2210 1897.16,2207.67 1864.5,2201C 1813.66,2184.86 1789.33,2150.03 1791.5,2096.5C 1788.85,2068.95 1797.51,2045.78 1817.5,2027C 1824.01,2022.24 1831.01,2018.24 1838.5,2015C 1849.46,2012.18 1860.46,2009.51 1871.5,2007C 1939.14,1995.61 2006.81,1984.45 2074.5,1973.5 Z"/></g>
<g><path style="opacity:1" fill="#41658b" d="M 2074.5,1973.5 C 2075.57,1972.57 2076.9,1972.23 2078.5,1972.5C 2078.83,2045 2078.5,2117.34 2077.5,2189.5C 2077.5,2117.5 2077.5,2045.5 2077.5,1973.5C 2076.5,1973.5 2075.5,1973.5 2074.5,1973.5 Z"/></g>
</svg>
